<svg width="1024" height="1024" viewBox="0 0 1024 1024" fill="none" xmlns="http://www.w3.org/2000/svg">
<rect x="512" y="219" width="49" height="15" rx="7.5" fill="#747474" fill-opacity="0.3" style="fill:#747474;fill:color(display-p3 0.4533 0.4533 0.4533);fill-opacity:0.3;"/>
<rect x="527" y="219" width="83" height="15" rx="7.5" transform="rotate(90 527 219)" fill="#747474" fill-opacity="0.3" style="fill:#747474;fill:color(display-p3 0.4533 0.4533 0.4533);fill-opacity:0.3;"/>
<rect x="584" y="285" width="15" height="15" rx="7.5" transform="rotate(90 584 285)" fill="#747474" fill-opacity="0.3" style="fill:#747474;fill:color(display-p3 0.4533 0.4533 0.4533);fill-opacity:0.3;"/>
<rect x="512" y="286" width="49" height="15" rx="7.5" fill="#747474" fill-opacity="0.3" style="fill:#747474;fill:color(display-p3 0.4533 0.4533 0.4533);fill-opacity:0.3;"/>
<rect x="561" y="218" width="83" height="15" rx="7.5" transform="rotate(90 561 218)" fill="#747474" fill-opacity="0.3" style="fill:#747474;fill:color(display-p3 0.4533 0.4533 0.4533);fill-opacity:0.3;"/>
<rect x="591" y="218" width="49" height="15" rx="7.5" fill="#747474" fill-opacity="0.3" style="fill:#747474;fill:color(display-p3 0.4533 0.4533 0.4533);fill-opacity:0.3;"/>
<rect x="606" y="218" width="83" height="15" rx="7.5" transform="rotate(90 606 218)" fill="#747474" fill-opacity="0.3" style="fill:#747474;fill:color(display-p3 0.4533 0.4533 0.4533);fill-opacity:0.3;"/>
<rect x="591" y="285" width="49" height="15" rx="7.5" fill="#747474" fill-opacity="0.3" style="fill:#747474;fill:color(display-p3 0.4533 0.4533 0.4533);fill-opacity:0.3;"/>
<rect x="640" y="217" width="83" height="15" rx="7.5" transform="rotate(90 640 217)" fill="#747474" fill-opacity="0.3" style="fill:#747474;fill:color(display-p3 0.4533 0.4533 0.4533);fill-opacity:0.3;"/>
<rect x="453" y="219" width="49" height="15" rx="7.5" fill="#747474" fill-opacity="0.3" style="fill:#747474;fill:color(display-p3 0.4533 0.4533 0.4533);fill-opacity:0.3;"/>
<rect x="468" y="219" width="83" height="15" rx="7.5" transform="rotate(90 468 219)" fill="#747474" fill-opacity="0.3" style="fill:#747474;fill:color(display-p3 0.4533 0.4533 0.4533);fill-opacity:0.3;"/>
<rect x="453" y="286" width="49" height="15" rx="7.5" fill="#747474" fill-opacity="0.3" style="fill:#747474;fill:color(display-p3 0.4533 0.4533 0.4533);fill-opacity:0.3;"/>
<rect x="502" y="218" width="83" height="15" rx="7.5" transform="rotate(90 502 218)" fill="#747474" fill-opacity="0.3" style="fill:#747474;fill:color(display-p3 0.4533 0.4533 0.4533);fill-opacity:0.3;"/>
<rect x="394" y="219" width="49" height="15" rx="7.5" fill="#747474" fill-opacity="0.3" style="fill:#747474;fill:color(display-p3 0.4533 0.4533 0.4533);fill-opacity:0.3;"/>
<rect x="409" y="219" width="83" height="15" rx="7.5" transform="rotate(90 409 219)" fill="#747474" fill-opacity="0.3" style="fill:#747474;fill:color(display-p3 0.4533 0.4533 0.4533);fill-opacity:0.3;"/>
<rect x="394" y="286" width="49" height="15" rx="7.5" fill="#747474" fill-opacity="0.3" style="fill:#747474;fill:color(display-p3 0.4533 0.4533 0.4533);fill-opacity:0.3;"/>
<rect x="443" y="218" width="83" height="15" rx="7.5" transform="rotate(90 443 218)" fill="#747474" fill-opacity="0.3" style="fill:#747474;fill:color(display-p3 0.4533 0.4533 0.4533);fill-opacity:0.3;"/>
</svg>
